PathFileType	4	(X/Y/Z)	G:\GRF\jawan data\CompiledGRF\03. Mohit Kumar\0231~ac~Walking 08_markers.trc
DataRate	CameraRate	NumFrames	NumMarkers	Units	OrigDataRate	OrigDataStartFrame	OrigNumFrames
100.000000	100.000000	11	18	mm	100.000000	547	876
Frame#	Time	c7			r should			l should			sacrum			r asis			r bar 1			r knee 1			r bar 2			r mall			r heel			r met			l asis			l bar 1			l knee 1			l bar 2			l mall			l heel			l met			
		X1	Y1	Z1	X2	Y2	Z2	X3	Y3	Z3	X4	Y4	Z4	X5	Y5	Z5	X6	Y6	Z6	X7	Y7	Z7	X8	Y8	Z8	X9	Y9	Z9	X10	Y10	Z10	X11	Y11	Z11	X12	Y12	Z12	X13	Y13	Z13	X14	Y14	Z14	X15	Y15	Z15	X16	Y16	Z16	X17	Y17	Z17	X18	Y18	Z18	

548	5.47	493.5023498535156	1485.718017578125	258.5971984863281	558.5654907226563	1438.051879882813	418.7099609375	535.714111328125	1446.587646484375	93.67411804199219	377.7355041503906	1035.150146484375	246.5488128662109	551.0587768554688	982.0730590820313	375.2481994628906	362.2023010253906	607.3513793945313	438.3593444824219	354.1827087402344	517.0538330078125	392.2051391601563	144.1053161621094	267.7778625488281	420.95458984375	83.06792449951172	145.8791961669922	364.5771179199219	16.22863960266113	148.2881622314453	318.3488159179688	178.0186004638672	38.2066535949707	346.1548461914063	555.82470703125	1003.451721191406	128.5395812988281	625.7199096679688	598.3663940429688	61.49045944213867	662.2257690429688	523.1160888671875	121.4374542236328	672.8526611328125	242.2578430175781	73.01418304443359	693.2376708984375	72.28551483154297	140.808349609375	630.2734985351563	33.70961380004883	185.4510955810547	834.3859252929688	43.36491775512695	178.1174468994141	
549	5.48	504.9462280273438	1487.395141601563	256.6337890625	569.656494140625	1440.395751953125	416.6580505371094	546.8309936523438	1448.829467773438	91.79093933105469	390.1235961914063	1037.129150390625	244.6325988769531	562.911376953125	983.56103515625	373.2547607421875	376.5655212402344	607.8394775390625	437.2481384277344	369.5877990722656	517.2780151367188	392.302001953125	153.9316101074219	272.7756042480469	421.3460388183594	91.10147094726563	151.4032287597656	365.1958618164063	25.65125465393066	157.0357055664063	318.5680541992188	179.1124877929688	38.48028182983398	345.6841735839844	568.739013671875	1005.466003417969	126.7675933837891	636.8126831054688	598.9812622070313	60.96389007568359	671.7616577148438	523.230712890625	121.3725433349609	677.5470581054688	242.1477203369141	73.36650848388672	694.1287231445313	72.12045288085938	141.4798736572266	630.6107177734375	33.90555953979492	185.5989685058594	835.7261962890625	42.59970092773438	178.5513305664063	
550	5.49	516.2757568359375	1489.136840820313	254.6267852783203	580.7761840820313	1442.885864257813	414.6356201171875	558.0252685546875	1451.15283203125	89.90453338623047	402.4049377441406	1039.1708984375	242.5037536621094	574.8577880859375	985.3687133789063	371.2177429199219	391.6600646972656	608.0443115234375	436.4598999023438	386.0462951660156	517.4799194335938	392.7694091796875	165.3058929443359	277.6221618652344	421.4208068847656	100.0289611816406	157.0085754394531	365.5863647460938	36.17253875732422	166.2846374511719	318.4209899902344	180.6973266601563	38.87983322143555	345.09619140625	581.477294921875	1007.350952148438	124.9594497680664	646.4526977539063	599.2598876953125	60.40933990478516	680.0995483398438	523.2682495117188	121.27587890625	682.494384765625	241.9399871826172	73.60725402832031	694.8385620117188	72.14966583251953	142.1635131835938	631.1060180664063	33.94737243652344	185.8384857177734	836.622802734375	41.72380828857422	178.8373870849609	
551	5.5	527.2927856445313	1490.91552734375	252.5893096923828	591.555908203125	1445.367553710938	412.5838928222656	569.1452026367188	1453.508666992188	87.99809265136719	414.4935913085938	1041.124633789063	240.3843078613281	586.6759033203125	987.2456665039063	369.3648071289063	407.544677734375	607.8593139648438	435.8910827636719	403.5259399414063	517.1470336914063	393.4696044921875	177.8097229003906	282.2862243652344	421.3097839355469	110.4483947753906	162.6313934326172	365.7816467285156	47.9510612487793	175.7721710205078	317.9352416992188	182.6488342285156	39.36514663696289	344.424560546875	594.165771484375	1009.153259277344	123.3144607543945	654.6280517578125	599.33740234375	59.81119537353516	687.704345703125	523.2374267578125	121.1324462890625	687.6131591796875	241.8402099609375	73.999755859375	695.7422485351563	72.21625518798828	142.8271026611328	631.455078125	34.0238151550293	186.0226745605469	837.1782836914063	40.96145629882813	179.2101745605469	
552	5.51	538.2304077148438	1492.731323242188	250.5378112792969	602.236083984375	1447.7333984375	410.6109619140625	580.4000854492188	1455.685913085938	86.09129333496094	426.4627075195313	1042.859252929688	238.3530578613281	598.0357055664063	989.0219116210938	367.6824035644531	424.3018798828125	607.1358642578125	435.6611328125	421.9469299316406	516.4266967773438	394.3922424316406	191.3277587890625	286.8724060058594	420.8161315917969	122.0072784423828	168.4139709472656	365.7074279785156	61.29074859619141	185.1363220214844	317.2432861328125	185.6710662841797	40.24753570556641	343.6059265136719	606.572998046875	1010.982971191406	121.8038864135742	662.1676635742188	599.199951171875	59.21932220458984	694.5578002929688	523.017578125	120.8538818359375	692.3912963867188	241.7143707275391	74.44040679931641	696.4071044921875	72.11415863037109	143.3745727539063	631.9307861328125	34.00144577026367	186.2371368408203	837.9427490234375	40.44227981567383	179.8223876953125	
553	5.52	549.5057373046875	1494.457275390625	248.548583984375	612.9151611328125	1449.88232421875	408.7017517089844	591.8871459960938	1457.585205078125	84.35507202148438	438.1074829101563	1044.36181640625	236.4143981933594	609.2867431640625	990.841064453125	366.1649169921875	441.929443359375	605.8294677734375	435.7573547363281	441.413330078125	515.3497314453125	395.4535217285156	205.8338623046875	291.4031677246094	420.5175170898438	134.41748046875	174.5795593261719	365.3902893066406	75.33261108398438	194.7126159667969	316.557373046875	190.1111602783203	42.01438522338867	342.6533508300781	619.085205078125	1012.785888671875	120.5197143554688	669.7398681640625	599.0475463867188	58.64979553222656	700.8477783203125	522.5234375	120.4910049438477	696.4948120117188	241.2071990966797	74.74003601074219	696.80224609375	72.04634857177734	143.7861328125	632.1925659179688	34.06914901733398	186.4158477783203	838.7180786132813	39.9118537902832	180.4022521972656	
554	5.53	560.3740234375	1496	246.4962921142578	623.38623046875	1451.876098632813	406.8609924316406	603.0965576171875	1459.068115234375	82.73395538330078	449.4537658691406	1045.657592773438	234.5197448730469	620.010498046875	992.4161376953125	364.7785339355469	460.1965942382813	604.1875	436.0393981933594	461.6536560058594	513.8285522460938	396.458740234375	221.0372924804688	296.0802917480469	420.4321594238281	147.54833984375	181.4630432128906	364.7440795898438	89.95856475830078	204.7678070068359	315.9600219726563	196.5201873779297	45.20159912109375	341.7446594238281	630.961181640625	1014.289855957031	119.2008895874023	676.926513671875	599.00830078125	57.89371109008789	707.1732177734375	522.1154174804688	120.0435562133789	699.7152709960938	240.4441070556641	74.76110076904297	697.2108764648438	71.97879791259766	144.0904083251953	632.5718383789063	34.14593505859375	186.4920501708984	839.3604736328125	39.39686584472656	180.7880249023438	
555	5.54	571.479248046875	1497.39599609375	244.5229034423828	633.8382568359375	1453.668090820313	405.123291015625	614.5367431640625	1460.4296875	81.02622985839844	460.5190734863281	1046.723754882813	232.6334075927734	630.4924926757813	993.8519287109375	363.4519958496094	478.9401245117188	602.4097900390625	436.3844299316406	482.3857421875	512.160888671875	397.3217468261719	237.0837707519531	301.1890869140625	420.147705078125	161.1185302734375	189.1766967773438	363.9137878417969	105.0323104858398	215.4055786132813	315.1835021972656	202.1013793945313	48.76069259643555	340.5326232910156	642.4458618164063	1015.502807617188	117.8344116210938	684.2484741210938	599.1002807617188	57.05904769897461	713.61767578125	521.880126953125	119.5111236572266	702.0316772460938	239.9279937744141	74.51837158203125	697.5977172851563	71.82472991943359	144.1886444091797	633.2322387695313	33.93923568725586	186.5160217285156	839.7902221679688	38.90957260131836	180.9278564453125	
556	5.55	583.0265502929688	1498.849487304688	242.6232757568359	644.2537231445313	1455.301635742188	403.4933471679688	626.7291259765625	1461.945678710938	79.0634765625	471.341552734375	1047.72900390625	230.8166198730469	641.0510864257813	995.1973876953125	362.2043762207031	497.9677734375	600.6455688476563	436.6426696777344	503.4491882324219	510.6172485351563	398.0284729003906	254.4740447998047	306.4349060058594	419.6743469238281	175.0879821777344	197.5690460205078	362.8082885742188	120.6139144897461	226.5783538818359	314.0775146484375	208.7737884521484	53.56843948364258	339.7908935546875	653.5407104492188	1016.544006347656	116.3872451782227	691.1856689453125	599.2685546875	55.95747756958008	719.6000366210938	521.7451782226563	118.7437133789063	703.6795654296875	239.6544799804688	73.92425537109375	697.964599609375	71.64723205566406	144.1677856445313	633.2271728515625	34.02759552001953	186.5637817382813	840.2145385742188	38.52299499511719	180.8512878417969	
557	5.56	594.1814575195313	1500.1240234375	240.7652740478516	654.4866943359375	1456.673828125	401.9490661621094	638.5655517578125	1463.088623046875	77.28308868408203	481.9731140136719	1048.735107421875	229.3115386962891	651.4735107421875	996.4389038085938	360.9207763671875	517.2155151367188	599.1116943359375	436.75244140625	525.0383911132813	509.41259765625	398.6569519042969	272.51025390625	311.8202514648438	418.670654296875	189.9280395507813	206.2246246337891	361.3064270019531	136.857177734375	237.720458984375	312.080322265625	217.1934204101563	59.31258010864258	339.7598876953125	663.981201171875	1017.399658203125	114.8399047851563	697.92626953125	599.616943359375	54.6903076171875	724.5603637695313	521.5101318359375	117.6425933837891	704.7659301757813	239.3939208984375	73.09841918945313	698.2063598632813	71.54513549804688	143.9797973632813	632.9501953125	34.27640914916992	186.5319671630859	840.6701049804688	38.29619598388672	180.5874633789063	
558	5.57	604.2620239257813	1501.4423828125	239.0743865966797	664.7344360351563	1457.924072265625	400.43994140625	649.7744140625	1463.957275390625	75.68267059326172	492.2881774902344	1049.910278320313	228.2367401123047	661.7025756835938	997.7236938476563	359.5290832519531	536.4615478515625	598.0072021484375	436.7108459472656	546.8145141601563	508.7114562988281	399.2738037109375	290.0496826171875	317.4570007324219	417.6708068847656	205.2530670166016	215.0813293457031	359.255859375	153.9083099365234	247.92626953125	308.919921875	229.3082733154297	66.37224578857422	340.5541076660156	674.0626220703125	1018.21923828125	113.1472396850586	704.217529296875	599.8687133789063	53.53281021118164	728.6961669921875	521.1048583984375	116.111083984375	705.6384887695313	239.1348114013672	72.13315582275391	698.3638916015625	71.45835113525391	143.7089385986328	632.9906616210938	34.30433654785156	186.4434814453125	840.863037109375	37.97856903076172	180.2082061767578	
